<svg width="80" height="80" viewBox="0 0 80 80" fill="none" xmlns="http://www.w3.org/2000/svg">
<g clip-path="url(#clip0_208_3550)">
<rect width="80" height="80" rx="40" fill="#DC4646"/>
<path d="M57.8687 53.2617C54.9343 50.6379 51.1939 48.6583 46.979 47.6025L39.9292 29.9648L32.769 47.6357C28.6145 48.698 24.9264 50.6594 22.0249 53.25L36.6118 19H43.3286L57.8687 53.2617Z" fill="white"/>
<path d="M39.7656 49.7422C48.0874 49.7422 55.4434 53.215 59.8945 58.5293L54.0059 61.7432C50.8571 58.3903 45.8687 56.0596 39.7656 56.0596C33.9122 56.0596 29.0841 58.2035 25.9209 61.3369L20 58.1055C24.482 53.0308 31.6668 49.7422 39.7656 49.7422Z" fill="white"/>
</g>
<defs>
<clipPath id="clip0_208_3550">
<path d="M0 40C0 17.9086 17.9086 0 40 0C62.0914 0 80 17.9086 80 40C80 62.0914 62.0914 80 40 80C17.9086 80 0 62.0914 0 40Z" fill="white"/>
</clipPath>
</defs>
</svg>
