<svg width="150" height="30" viewBox="0 0 150 30" fill="none" xmlns="http://www.w3.org/2000/svg">
<path d="M26.5771 24.0459C24.5177 22.2046 21.8926 20.8151 18.9346 20.0742L13.9873 7.69629L8.96191 20.0977C6.04616 20.8431 3.45734 22.2191 1.4209 24.0371L11.6592 0H16.373L26.5771 24.0459Z" fill="#101010"/>
<path d="M13.8721 21.5781C19.7124 21.5781 24.875 24.0156 27.999 27.7451L23.8643 30.002C21.6543 27.6492 18.1551 26.0117 13.8721 26.0117C9.76422 26.0118 6.37723 27.5179 4.15723 29.7168L0 27.4473C3.14566 23.8859 8.18827 21.5782 13.8721 21.5781Z" fill="#101010"/>
<path d="M31.999 30.0003V10.8615H36.3593L36.7837 13.4468C37.4011 12.5207 38.2114 11.7875 39.2147 11.2473C40.2436 10.6814 41.427 10.3984 42.7646 10.3984C45.7229 10.3984 47.8194 11.5432 49.0542 13.8326C49.7488 12.7779 50.6748 11.9419 51.8324 11.3245C53.0157 10.7071 54.3019 10.3984 55.6911 10.3984C58.1863 10.3984 60.1028 11.1444 61.4404 12.6364C62.7781 14.1285 63.4469 16.315 63.4469 19.1961V30.0003H58.5079V19.6592C58.5079 18.0128 58.1863 16.7523 57.5432 15.8777C56.9258 15.0031 55.9612 14.5658 54.6492 14.5658C53.3116 14.5658 52.2311 15.0545 51.408 16.032C50.6105 17.0096 50.2118 18.373 50.2118 20.1222V30.0003H45.2727V19.6592C45.2727 18.0128 44.9512 16.7523 44.3081 15.8777C43.665 15.0031 42.6746 14.5658 41.3369 14.5658C40.025 14.5658 38.9574 15.0545 38.1343 16.032C37.3368 17.0096 36.9381 18.373 36.9381 20.1222V30.0003H31.999Z" fill="#101010"/>
<path d="M77.3635 30.0024C75.4342 30.0024 73.7235 29.5908 72.2315 28.7676C70.7395 27.9445 69.569 26.7869 68.7201 25.2949C67.8712 23.8029 67.4468 22.0793 67.4468 20.1243C67.4468 18.1435 67.8584 16.3814 68.6815 14.838C69.5304 13.2945 70.688 12.0983 72.1543 11.2494C73.6463 10.3748 75.3956 9.9375 77.4021 9.9375C79.2799 9.9375 80.9391 10.3491 82.3797 11.1723C83.8203 11.9954 84.9393 13.1273 85.7367 14.5679C86.5599 15.9827 86.9715 17.5647 86.9715 19.314C86.9715 19.597 86.9586 19.8928 86.9329 20.2015C86.9329 20.5102 86.92 20.8317 86.8943 21.1661H72.3472C72.4501 22.6581 72.9646 23.8286 73.8907 24.6775C74.8425 25.5264 75.9872 25.9508 77.3249 25.9508C78.3281 25.9508 79.1642 25.7322 79.833 25.2949C80.5276 24.8318 81.042 24.2402 81.3765 23.5199H86.3927C86.0325 24.7289 85.428 25.8351 84.5791 26.8383C83.756 27.8159 82.727 28.5876 81.4922 29.1535C80.2832 29.7194 78.9069 30.0024 77.3635 30.0024ZM77.4021 13.9505C76.193 13.9505 75.1255 14.2978 74.1994 14.9923C73.2733 15.6611 72.6817 16.6901 72.4244 18.0792H81.9553C81.8781 16.8187 81.415 15.8155 80.5661 15.0695C79.7172 14.3235 78.6625 13.9505 77.4021 13.9505Z" fill="#101010"/>
<path d="M90.9717 30.0003V10.8615H95.3705L95.8336 14.45C96.5281 13.2152 97.4671 12.2377 98.6504 11.5174C99.8594 10.7714 101.274 10.3984 102.895 10.3984V15.6076H101.506C100.425 15.6076 99.4607 15.7748 98.6118 16.1092C97.7629 16.4436 97.0941 17.0224 96.6053 17.8456C96.1423 18.6688 95.9107 19.8135 95.9107 21.2798V30.0003H90.9717Z" fill="#101010"/>
<path d="M116.889 30.0024C114.934 30.0024 113.21 29.578 111.718 28.7291C110.226 27.8802 109.043 26.6968 108.168 25.1791C107.319 23.6614 106.895 21.925 106.895 19.97C106.895 18.0149 107.319 16.2785 108.168 14.7608C109.043 13.2431 110.226 12.0597 111.718 11.2108C113.21 10.3619 114.934 9.9375 116.889 9.9375C119.333 9.9375 121.391 10.5806 123.063 11.8668C124.735 13.1273 125.802 14.8766 126.265 17.1146H121.056C120.799 16.1885 120.284 15.4682 119.513 14.9537C118.767 14.4135 117.879 14.1434 116.85 14.1434C115.487 14.1434 114.329 14.6579 113.378 15.6869C112.426 16.7158 111.95 18.1435 111.95 19.97C111.95 21.7964 112.426 23.2241 113.378 24.253C114.329 25.282 115.487 25.7965 116.85 25.7965C117.879 25.7965 118.767 25.5393 119.513 25.0248C120.284 24.5103 120.799 23.7771 121.056 22.8253H126.265C125.802 24.9862 124.735 26.7226 123.063 28.0345C121.391 29.3464 119.333 30.0024 116.889 30.0024Z" fill="#101010"/>
<path d="M140.182 30.0024C138.253 30.0024 136.542 29.5908 135.05 28.7676C133.558 27.9445 132.387 26.7869 131.538 25.2949C130.69 23.8029 130.265 22.0793 130.265 20.1243C130.265 18.1435 130.677 16.3814 131.5 14.838C132.349 13.2945 133.506 12.0983 134.973 11.2494C136.465 10.3748 138.214 9.9375 140.22 9.9375C142.098 9.9375 143.757 10.3491 145.198 11.1723C146.639 11.9954 147.758 13.1273 148.555 14.5679C149.378 15.9827 149.79 17.5647 149.79 19.314C149.79 19.597 149.777 19.8928 149.751 20.2015C149.751 20.5102 149.738 20.8317 149.713 21.1661H135.166C135.268 22.6581 135.783 23.8286 136.709 24.6775C137.661 25.5264 138.806 25.9508 140.143 25.9508C141.146 25.9508 141.983 25.7322 142.651 25.2949C143.346 24.8318 143.86 24.2402 144.195 23.5199H149.211C148.851 24.7289 148.246 25.8351 147.397 26.8383C146.574 27.8159 145.545 28.5876 144.311 29.1535C143.102 29.7194 141.725 30.0024 140.182 30.0024ZM140.22 13.9505C139.011 13.9505 137.944 14.2978 137.018 14.9923C136.092 15.6611 135.5 16.6901 135.243 18.0792H144.774C144.696 16.8187 144.233 15.8155 143.384 15.0695C142.536 14.3235 141.481 13.9505 140.22 13.9505Z" fill="#101010"/>
</svg>
